<?xml version="1.0" encoding="UTF-8"?>
<svg id="Capa_2" data-name="Capa 2" xmlns="http://www.w3.org/2000/svg" viewBox="0 0 1080 1080">
  <defs>
    <style>
      .cls-1 {
        fill: #1d1d1b;
        stroke-width: 0px;
      }
    </style>
  </defs>
  <path class="cls-1" d="m703.04,897.1c25.51-20.1,7.3-43.25,36.05-111.68,9.16-21.81,12.5-64.31,13.95-84.66,2.86-40.13,10.01-42.9,57.06-99.81,19.33-23.38,63.05-35.62,61.5-69.57-2.11-46.33-28.6-4.56-44.3,8.4-24.2,19.98-16.91,24.98-66.8,58.69-38.66,26.11-59.15,21.26-83.85,25.5-44.03,7.56-90.39-26.66-92.73-13.71s-55.89,42.11-67.98,32.86c-12.09-9.25-30.6-6.85-30.6-6.85,2.09,11.47,14.38,19.37,29.84,23.14,15.46,3.77,29.27-1.59,32.77-2.59s11.05-1.04,11.92,4.55-11.66,13.26-25.39,25.01c-13.73,11.75-25.55,15.19-30.75,15.55-5.21.35-12.64-10.61-22.55-8.15-9.91,2.46-11.21,20.28-.88,26.68,16.06,9.94,9.39,4.48,35.63,1.08,26.24-3.4,37.15,12.29,37.15,12.29,0,0-10.18-4.33-31.3-1.68-21.26,2.66-29.3,3.93-38.65,1.56-10.48-2.67-15.16-21.6-22.33-20.27-8.89,1.66-6.18,12.63-4.63,31.38,1.55,18.75-10.21,24.01-20,28.74-9.79,4.73-11.26,27.61-13.01,25.14s-.17-18.73,2.02-22.28c2.19-3.54,10.73-23.64,15.34-30.76s2.26-13.39.83-25.52c-1.43-12.13,5.75-20.34,5.75-20.34-9.02-.65-13.82,6.73-18.62,14.11-4.8,7.38-26.5,28.15-36.3,34.26s-10.38,8.25-11.69,11.58c-1.31,3.33-4.46,5.12-6.25,5.4s-2.59-7.83,5.76-14.4,18.73-20.76,21.92-23.78,13.49-16.21,13.49-16.21c25.28-28.27,33.9-32.29,58.06-28.76,24.16,3.54,32.92.47,37.36-3.88,4.43-4.34-7.9-3.88-16.97-2.71-9.06,1.17-19.74-6.41-41.12-14.03s-17.14-16.31-17.14-16.31c-.61-24.24-.36-25.72-6.5-32.33-15.2-16.37-3.91-23.94,2.79-26.03,6.69-2.1,22.08,18.27,32.98,22.89,10.9,4.62,25.64-11.67,28.64-14.94s7.44,2.7,10.39-.92c2.95-3.62-.39-13.42-8.23-16.41-4.95-1.89-25.22-17.4-43.65-29.06-14.47-9.16-11.68-26.85-29.85-45.07-10.74-10.77-13.83-54.79-23.23-50.8-8.57,3.64-21.34-6.49-28.77-4.84-8.34,1.86-12.26,10.23-14.03,15.83-2.67,8.42-1.59,15.14-9.67,19.03-19.12,9.21-25.15-5.91-28.96-12.34-3.81-6.43-13.3-47.08-16.35-55.38s-15.89-7.35-24.69-16.51c-8.8-9.16-14.79-25.08-18.33-29.79s-10.69-15.88-18.2-13.92c-7.51,1.95-3.04,14.34-3.04,14.34,5.3,16.38-.75,13.24-2.18,20.92-1.94,10.41,2.85,27.21.05,24.32-2.79-2.88-1.87-5.76-9.04-15.38-7.16-9.62-2.3-19.75,0-32.61s-8.91-15.8-11.14-23.84,8.29-13.2,8.29-13.2c9.03-.97,4.77,12.51,18.5,15.97,8.13,2.05,14.69-12.65,8.97-15.69-5.72-3.04-18.85-11.5-18.85-11.5-19.49-38.08-53.84-28.35-64.4-31.52-10.55-3.17-3.01-10.9-8.28-16.64-5.27-5.74-9.69-17.3-9.69-17.3,0,0,8.94,1.23,15.1,9.89s17.4,7.79,17.4,7.79c35.19-1.55,34.09,8.25,42.16,17.92s25.92,28.77,25.92,28.77c0,0,3.42-.53,4.39-5.5s-8.06-23.67-14.32-30.14c-6.26-6.46-25.78-8.23-35.62-18.07-9.84-9.84-16.44-4.44-32.88-8.87-16.44-4.44-17.01-30.59-15.66-24.68,1.36,5.91,14.39,16.57,17.78,18.66,3.39,2.1,11.47,3.46,19.45,1.34s16.52-3.45,23.43,1.6c6.91,5.05,18.11,20.8,38.13,22.93,20.01,2.13,29.18,16.01,38.69,43.4,9.52,27.38,8.82,39.74,22.86,48.49,14.05,8.75,15.32,56.22,25.77,55.91,10.45-.32,13.22-13.43,24.53-22.19,11.32-8.76,13-20.4,13.25-30.06s14.49-19.32,8.35-30.61c-6.13-11.29-2.92-13.1-14.24-24.02-11.32-10.92-10.56-8.85-20.37-35.32-9.81-26.46-28.87-25.24-28.87-25.24-48.95,5.88-37.66-.26-64.49-9.63-26.83-9.38-18.69.73-41.15-5.83s-26.12-15.96-26.12-15.96c0,0,3.81-7.29,6.47-8.86s5.37-2.87,8.02-2.7c2.64.17,7.97.72,16.45-2.75,8.48-3.46,28.11-13.8,39.95-25.53,11.84-11.74,31.5-6.95,35.76-7.61s20.51-4.65,23.68-4.85,16.8-2.33,25.07,2.2,14.99,8.43,25.43,8.26,19.33,7.78,26.83,9.23c7.5,1.45,20.63,29.79,29.19,35.81,16.08,11.31,20.37,35.91,34.8,56.02,0,0,16.05,13.82,16.82,26.71.77,12.89,15.08,21.2,23.27,22.09,8.19.89,21.48-3.35,26.9-12.25,5.43-8.9,3.38-10.13-.77-22.81s-11.29-26.74-11.72-29.46-18.61-6.08-21.27-11.25-15.13-17.56-15.6-20.58,1.03-7.76,9-21.76-3.52-28.57-3.05-35.46c.48-6.89,5.01-7.6,4.54-24.56s-1.91-24.18,7.71-30.01c9.62-5.84,9.24-2.37,19.78-14.24s11.07-4.51,11.07-4.51c0,0-.2,4.68-1.8,8.34s-7.55,9.23-9.72,15.15c-2.18,5.92-15.77,6.17-17.96,17.98-2.19,11.8-2.11,14.27.23,21.34,2.34,7.07,5.07,20.59,2.68,27.16-2.38,6.57-4.46,27.03.9,33.63s10.01-31.38,12-40.79c1.99-9.41,11.29-16.2,11.33-19.97.04-3.77.27-20.44,4.32-22.65s14.04-6.58,16.42-9.46c2.38-2.88,11.1-17.42,16.19-16.96,5.09.46-2.59,13.59-9.06,22.44-6.47,8.86-16.18,11-19.27,19.33s-6.39,35.52-6.36,41.8c.04,6.27-8.4,22.65-2.26,35.82,6.13,13.17,12.07.94,12.35-1.3s1.16-8.66,1.34-15.59c.18-6.93,1.72-23.18,4.29-24.84,2.57-1.66,20.32-26.71,21.09-31.85s9.21-17.44,19.96-16.92c10.75.52,10.7-3.86,12.94-3.59s8.62,4.94,5.84,7.25c-2.78,2.32-9.14,5.82-13.83,5.92s-7.98,7.21-11.26,8.35-11.99,5.64-14.98,18.66c-2.99,13.02-9.54,29.42-8.73,34.63.81,5.21,1.88,20.11-1.95,25.73-3.83,5.62-3.34,16.84,5.29,29.94,8.63,13.09,25.33,63.85,22.75,71.47s-16.77,9.21-21.88,14.71-29.74,3.69-37.27,11.77c-7.53,8.08,14.85,20.51,13.71,50.11-.81,21.21,10.12,27.74,20.07,34.74s27.16,26.12,46.34,20.26c15.15-4.63,32.1,22.97,45.03,19.73,0,0,1.14-.91-5.35-11.2-6.49-10.29-8.68-12.21-12.67-24.1-3.99-11.9-8.71-10.86-9.33-18.7-.61-7.84.21-20.19-2.74-31.33s-7.51-26.62-4.21-28.96,9.12-4.17,24.56-1.08c0,0,6.06-.33,15.77-4.6,9.72-4.26,9.62,18.65,12.89,23.95,3.27,5.29,18.78,6.84,26,27.7,0,0,3.59-29.87,4.04-41.85.2-5.33-4.82-6.27-15.23-26.02,0,0-6.89-5.03,4.99-30.7,0,0-2.37-15.2,1.64-18.88,4.01-3.68,18.17-10.77,21.81-12.86,3.64-2.09,5.85-13.43,20.45-15.71,14.61-2.28,27.06-2.69,28.12.2,1.06,2.89-19.91,5.46-25.99,13.47s-10.78,12.47-25.02,11.88-6.14,27.22-7.37,31.07c0,0-5.86,5.49-.09,13.14,5.77,7.65,13.66,17.11,7.77,30.24,0,0,8.12-12.56,15.7-16.8,7.58-4.24,5.58-34.76,17.99-41.28,12.42-6.52,24.13-1.93,34.67-4.79s16.77-9.94,17.69-7.95,1.13,15.09-29.89,21.76c0,0-13.87,3.08-17.47,15.24-3.6,12.16-4.55,31.55-17.31,41.78,0,0,7.52-12.47,21.26-2.7,13.74,9.77,22.15,12.83,26.31,12.08,13.37-2.39,23.03-24.66,37.68-26.64,0,0-7.51,6.67-9.47,13.69-1.96,7.02-.31,15.62-19.09,18.55-18.78,2.93-34.43.48-44.07-2.6-9.64-3.08-10.86,8.71-10.49,20.87.37,12.16-9.11,21.88-8.37,26.65.74,4.77,10.06,19.5.08,29.91-9.98,10.41-19.74,4.6-21.98-3.9-2.24-8.51-6.07-21.34-15.42-24.47-9.34-3.12-18.6-9.62-20.44-13.61-1.59-3.44,9.52,16.6,18.15,27.58,2.24,2.85,3.4,6.39,3.26,10.02-.25,6.48,2.76,25.71,12.71,26.47,17.96,1.38,17.32.74,74.01-46.27,18.81-15.6,42.86-46.64,77.08-39.7,19.29,3.91,53.35.1,72.87,24.47,18.82,23.51,29.4,63.84,27.36,84.5-2.99,30.22-13.39,61.15-50.59,86.25-52.75,35.6-67.55,42.86-91.67,87.86-25.04,46.71-18.71,29.12-28.4,134.1,0,0-1.24,82.72-74.27,117.26-71.28,33.71-112.12,37.54-157.47,8.29-33.63-21.69-39-37.66-42.02-108.09,0,0-12.4-61.74-23.63-71.92-11.23-10.19-18.96-14.21-19.52-17.8s-.3-21.74-1.75-27.77c-.77-3.18,15.62,15.23,30.66,17.48s20.51,8.17,24.96,30.54c2.47,12.41,12.73,31.61,15.7,53.62,4.02,29.85-.87,61.19,15.73,75.54,68.63,59.31,111.95,19.01,152.69-13.08Z"/>
  <path class="cls-1" d="m404.57,708.64s-12.58-19.38-17.86-31.48-29.48-27.15-40.13-27.92c-10.66-.77-38.53-6.37-40.17-37.73-1.64-31.35,3.52-65.96-23.67-79.1-8.05-3.89-20.84,8.91-19.63,18.3,2.38,18.45,14.67,41.78-1.91,47.39-10.23,3.46-22.32,26.57-42.73,23.38-32.01-5-39.48,18.61-44.55,43.31-5.07,24.7-13.3-.97-9.51-7.86,0,0,4.79-8.56,7.02-11.86,2.23-3.3,5.45-28.72,14.46-34.56,9.01-5.84,32-3.3,42.92-7.74s20.25-8.22,20.09-18.76c-.16-10.53-7.86-28.76-3.11-43.01,4.75-14.25,15.36-31.53,32.64-27.68,17.28,3.85,32.62,12.86,40.98,36.69,0,0,8.22,30.99,8.24,54.22.02,23.23,34.41,34.06,43.73,35.47,12.17,1.84,43.34,36.78,48.37,47.42,2,4.23-1.98,5.76-6.36,10.44-4.15,4.44-4.62,8-8.83,11.07Z"/>
  <path class="cls-1" d="m422.19,733.13s3.55,3.02,10.64,8.87c2.47,2.04,3-10.63,2.75-18.9-.14-4.48,1.34-6.03.34-6.03-.76,0-3.53,5.71-6.69,9.62-3.33,4.12-7.04,6.44-7.04,6.44Z"/>
</svg>